<svg width="24" height="24" viewBox="0 0 24 24" fill="none" xmlns="http://www.w3.org/2000/svg">
<g clip-path="url(#clip0_63_52)">
<path d="M13.9998 23.9999C10.8182 23.9965 7.76796 22.7311 5.51827 20.4814C3.26858 18.2317 2.00319 15.1814 1.99975 11.9999C1.84675 3.04389 12.0308 -2.98511 19.7908 1.50889L21.3438 2.37089L19.8008 3.25089C13.1008 6.93889 13.5908 17.1209 20.6008 20.1569L22.2218 20.8879L20.7548 21.8939C18.7681 23.2633 16.4127 23.9977 13.9998 23.9999ZM13.9998 1.99989C11.3485 2.0028 8.80663 3.05731 6.9319 4.93204C5.05717 6.80677 4.00266 9.34862 3.99975 11.9999C3.84475 19.1169 11.7628 24.1999 18.1548 21.0819C16.6583 20.0776 15.4178 18.7369 14.5325 17.1671C13.6472 15.5973 13.1417 13.842 13.0566 12.0418C12.9714 10.2416 13.3089 8.44646 14.0421 6.80011C14.7753 5.15376 15.8838 3.70195 17.2788 2.56089C16.226 2.18734 15.1168 1.99757 13.9998 1.99989Z" fill="#484C69"/>
</g>
<defs>
<clipPath id="clip0_63_52">
<rect width="24" height="24" fill="white"/>
</clipPath>
</defs>
</svg>
